<?xml version="1.0" standalone="no"?>
<!DOCTYPE svg PUBLIC "-//W3C//DTD SVG 20010904//EN"
 "http://www.w3.org/TR/2001/REC-SVG-20010904/DTD/svg10.dtd">
<svg version="1.0" xmlns="http://www.w3.org/2000/svg"
 width="230.000000pt" height="270.000000pt" viewBox="0 0 230.000000 270.000000"
 preserveAspectRatio="xMidYMid meet">
<metadata>
Created by potrace 1.16, written by Peter Selinger 2001-2019
</metadata>
<g transform="translate(0.000000,270.000000) scale(0.100000,-0.100000)"
fill="#000000" stroke="none">
<path d="M1253 2546 c-68 -61 -150 -81 -203 -51 -33 19 -74 19 -90 0 -10 -11
-10 -25 0 -65 19 -81 -1 -165 -49 -206 -20 -18 -50 -51 -66 -75 l-30 -42 -5
-251 c-6 -248 -6 -252 -33 -310 -16 -32 -43 -77 -61 -100 -99 -122 -213 -323
-236 -414 -8 -28 -16 -52 -19 -52 -8 0 -8 -147 0 -154 3 -3 19 -1 35 6 79 29
147 -24 228 -180 25 -48 58 -102 73 -121 26 -31 32 -33 59 -24 20 6 32 19 38
40 15 49 87 66 180 41 28 -7 49 -20 57 -34 10 -19 16 -21 31 -13 14 7 23 7 34
-1 7 -7 21 -9 31 -6 10 4 31 -5 57 -26 l41 -33 -23 32 c-13 18 -27 35 -32 38
-32 20 10 39 85 40 40 0 50 4 53 18 3 16 -1 18 -27 12 -23 -5 -31 -3 -31 7 0
12 -9 13 -54 4 -30 -6 -58 -15 -62 -19 -16 -16 -36 -7 -31 14 3 11 2 19 -1 17
-52 -26 -63 -30 -69 -25 -3 4 4 19 18 34 l24 27 -25 -17 c-71 -48 -76 -45 -23
14 41 46 91 74 148 85 l39 7 -18 -29 c-19 -28 -19 -28 24 6 25 19 50 34 56 32
19 -4 75 31 93 57 15 23 15 23 -9 16 -14 -4 -45 -20 -70 -35 -25 -15 -62 -30
-83 -33 -21 -3 -63 -17 -94 -32 -41 -18 -59 -22 -69 -15 -8 7 -19 8 -31 2 -10
-6 -29 -15 -43 -21 -23 -10 -21 -11 18 -8 66 4 50 -9 -20 -17 -46 -4 -69 -12
-88 -30 -30 -28 -90 -60 -90 -48 0 21 -89 108 -162 159 -102 72 -132 120 -132
213 0 67 43 212 67 227 7 4 8 0 2 -13 -49 -117 -57 -200 -25 -270 l22 -49 19
92 c10 50 35 129 55 175 94 218 115 272 134 340 25 91 25 123 0 155 -27 34
-25 59 6 88 24 23 25 25 10 54 -22 42 -20 119 4 159 20 33 46 40 79 22 20 -10
51 -78 51 -110 0 -17 7 -20 40 -20 38 0 40 2 40 30 0 73 47 130 107 130 76 0
129 -124 88 -204 -14 -27 -14 -31 6 -52 18 -19 21 -31 15 -62 -9 -58 38 -194
145 -424 38 -81 77 -177 87 -215 17 -60 22 -68 45 -71 23 -3 26 1 33 43 13 92
-18 197 -87 288 l-31 42 36 -40 c73 -83 116 -191 116 -297 0 -56 1 -58 38 -77
50 -26 86 -66 88 -99 0 -19 7 -28 21 -30 29 -4 43 42 43 148 0 150 -53 270
-215 485 -126 168 -131 182 -140 392 -5 122 -12 192 -27 245 -11 40 -19 84
-19 98 1 25 46 80 67 80 25 0 64 42 64 69 0 38 -29 61 -76 61 -53 1 -97 40
-114 103 -13 49 -60 107 -86 107 -8 0 -31 -15 -51 -34z m34 -178 c19 -9 31
-25 38 -52 7 -22 17 -41 23 -42 7 -1 8 0 2 3 -16 8 -12 21 10 28 24 8 85 -27
101 -57 10 -18 9 -20 -6 -14 -14 5 -15 3 -8 -6 7 -9 5 -21 -7 -41 l-17 -27
-19 21 c-46 51 -218 120 -280 113 -16 -1 -55 -4 -86 -6 -32 -1 -58 -7 -58 -12
0 -5 -3 -6 -7 -2 -5 4 1 14 11 22 11 8 14 14 8 14 -7 0 -12 5 -12 11 0 5 5 7
10 4 6 -3 10 1 10 10 0 9 5 13 10 10 6 -3 10 -1 10 5 0 7 17 10 48 8 43 -3 47
-5 44 -28 -1 -15 1 -20 6 -13 5 8 13 9 22 3 22 -14 27 -12 33 13 6 21 6 21 -8
3 -13 -17 -15 -18 -15 -3 0 9 10 27 21 38 23 23 64 22 116 -3z m-35 -135 c34
-20 78 -76 78 -99 0 -11 -43 -14 -225 -14 -167 0 -225 3 -225 12 0 22 97 105
136 116 60 17 197 8 236 -15z"/>
<path d="M1266 1592 c-3 -5 -22 -14 -43 -21 -22 -7 -50 -22 -63 -33 -14 -11
-19 -17 -12 -13 8 4 12 -2 12 -19 0 -30 7 -32 39 -10 16 12 21 23 17 38 -4 15
-1 23 8 23 10 0 11 -9 6 -34 -5 -18 -5 -33 -2 -33 3 0 -3 -7 -14 -15 -19 -15
-19 -15 1 -33 11 -10 21 -22 21 -27 1 -6 5 -25 9 -42 5 -25 3 -33 -7 -33 -8 0
-15 -12 -16 -27 -1 -15 -20 -48 -42 -74 -22 -26 -40 -52 -40 -57 0 -5 -6 -15
-14 -21 -11 -9 -15 -9 -19 1 -4 8 -6 7 -6 -4 -1 -10 -6 -18 -11 -18 -7 0 -7 6
0 19 5 11 7 26 4 35 -4 9 8 29 30 52 36 37 44 54 26 54 -5 0 -10 6 -10 13 0 6
-12 20 -25 30 -24 17 -26 17 -49 0 -33 -25 -52 -56 -37 -61 6 -2 11 -9 11 -16
0 -7 10 -22 21 -35 17 -18 19 -28 12 -44 -5 -12 -8 -32 -7 -44 2 -36 -139 102
-146 142 -8 46 0 165 11 165 6 0 7 -4 4 -10 -3 -5 -2 -10 3 -10 5 0 8 24 6 53
-1 28 2 57 7 63 6 8 4 14 -5 17 -19 8 -32 -32 -47 -146 -16 -123 -7 -170 36
-197 39 -24 87 -76 125 -137 l28 -43 12 31 c23 54 85 142 134 190 l48 46 -11
52 c-13 63 -14 165 -2 209 9 31 8 41 -3 24z"/>
<path d="M1536 917 c-23 -17 -36 -80 -25 -122 16 -57 55 -95 98 -95 68 0 161
66 161 114 0 31 -47 73 -109 96 -59 23 -100 25 -125 7z"/>
<path d="M1325 420 c-50 -34 -151 -60 -229 -60 -63 1 -115 13 -190 45 -17 7
-17 6 -5 -16 7 -13 13 -51 13 -84 1 -54 3 -60 21 -57 142 21 207 23 298 13 53
-7 101 -10 106 -7 4 3 11 34 14 68 4 35 9 75 13 91 8 32 -1 34 -41 7z"/>
</g>
</svg>
